<svg viewBox="0 0 800 800" xmlns="http://www.w3.org/2000/svg"><path d="M433.7785652531764,770.9747701694127 L433.8161363988756,-9.991903960751245 M366.2181348140368,809.980802870017 L366.1805553136216,28.97064396905097 M433.7785652531764,770.9747701694127 L440.88132377205574,776.2083656068967 M440.88132377205574,776.2083656068967 L445.6085043271454,782.2713350710783 M445.6085043271454,782.2713350710783 L447.6852814985308,788.8113849455756 M447.6852814985308,788.8113849455756 L446.99081348980405,795.4484650184634 M446.99081348980405,795.4484650184634 L443.5653101443811,801.7968393681415 M443.5653101443811,801.7968393681415 L437.60772274221074,807.4875155788498 M437.60772274221074,807.4875155788498 L429.46421297348945,812.1896917906355 M429.46421297348945,812.1896917906355 L419.60805060173374,815.6300067514464 M419.60805060173374,815.6300067514464 L408.61211467424914,817.6084434779528 M408.61211467424914,817.6084434779528 L397.11557128913876,818.0099721083218 M397.11557128913876,818.0099721083218 L385.7867141823953,816.811245214169 M385.7867141823953,816.811245214169 L375.2840750452176,814.0819619001742 M375.2840750452176,814.0819619001742 L366.2181348140368,809.980802870017 M433.8161363988756,-9.991903960751245 L440.92679588955315,-4.764143608339452 M440.92679588955315,-4.764143608339452 L445.65923537320106,1.2920662947503274 M445.65923537320106,1.2920662947503274 L447.73832357675997,7.824824975511945 M447.73832357675997,7.824824975511945 L447.0430840715794,14.454505957072342 M447.0430840715794,14.454505957072342 L443.61377120088764,20.795803328718534 M443.61377120088764,20.795803328718534 L437.649557358873,26.480135960467237 M437.649557358873,26.480135960467237 L429.4969891811197,31.177070660562038 M429.4969891811197,31.177070660562038 L419.62986287133066,34.613550793971626 M419.62986287133066,34.613550793971626 L408.6216948236204,36.58978224371651 M408.6216948236204,36.58978224371651 L397.11236229924003,36.990863310733175 M397.11236229924003,36.990863310733175 L385.7709026362876,35.79347257893886 M385.7709026362876,35.79347257893886 L375.2565802560565,33.067231497767864 M375.2565802560565,33.067231497767864 L366.1805553136216,28.97064396905097 M366.2181348140368,809.980802870017 L359.11580621943233,804.7462003766673 M359.11580621943233,804.7462003766673 L354.3898169473786,798.682454560822 M354.3898169473786,798.682454560822 L352.3147195085195,792.142036891933 M352.3147195085195,792.142036891933 L353.0109708934332,785.5050818390611 M353.0109708934332,785.5050818390611 L356.4379527080842,779.1572966831793 M356.4379527080842,779.1572966831793 L362.3963749736639,773.4675388630632 M362.3963749736639,773.4675388630632 L370.5398847423905,768.7663998462031 M370.5398847423905,768.7663998462031 L380.39521225074304,765.3270032759119 M380.39521225074304,765.3270032759119 L391.3896697089958,763.3491557433708 M391.3896697089958,763.3491557433708 L402.88442971790863,762.9477521332108 M402.88442971790863,762.9477521332108 L414.2116070921179,764.1461112327897 M414.2116070921179,764.1461112327897 L424.7130549462609,766.8746181953161 M424.7130549462609,766.8746181953161 L433.7785652531764,770.9747701694127 M366.1805553136216,28.97064396905097 L359.07032670420097,23.741876564514087 M359.07032670420097,23.741876564514087 L354.3390811553034,17.68489031264471 M354.3390811553034,17.68489031264471 L352.26167642324003,11.151763838857221 M352.26167642324003,11.151763838857221 L352.95870327428077,4.5222078768484835 M352.95870327428077,4.5222078768484835 L356.38949790517165,-1.8185003031899782 M356.38949790517165,-1.8185003031899782 L362.3545484689443,-7.5019145477576785 M362.3545484689443,-7.5019145477576785 L370.507116646703,-12.197812056780208 M370.507116646703,-12.197812056780208 L380.3734062347401,-15.63337380308161 M380.3734062347401,-15.63337380308161 L391.3800925222476,-17.609016061049658 M391.3800925222476,-17.609016061049658 L402.88763770075724,-18.009972108321733 M402.88763770075724,-18.009972108321733 L414.227413892206,-16.812949169735077 M414.227413892206,-16.812949169735077 L424.740542337688,-14.08748443714859 M424.740542337688,-14.08748443714859 L433.8161363988756,-9.991903960751245" stroke="black"  stroke-width="4"  fill="red"/></svg>